<svg width="28" height="28" viewBox="0 0 28 28" fill="none" xmlns="http://www.w3.org/2000/svg">
<path fill-rule="evenodd" clip-rule="evenodd" d="M19.0853 2.33334H8.91471C4.96515 2.33334 2.33331 5.15656 2.33331 9.20871V18.7913C2.33331 22.8473 4.95822 25.6667 8.91471 25.6667H19.0853C23.0417 25.6667 25.6666 22.8473 25.6666 18.7913V9.20871C25.6666 5.15277 23.0417 2.33334 19.0853 2.33334ZM8.91471 3.96125H19.0853C22.1156 3.96125 24.0387 6.02686 24.0387 9.20871V18.7913C24.0387 21.9732 22.1156 24.0388 19.0853 24.0388H8.91471C5.88432 24.0388 3.96122 21.9732 3.96122 18.7913V9.20871C3.96122 6.03109 5.89075 3.96125 8.91471 3.96125ZM14.8478 8.37543C14.7939 7.97814 14.4534 7.67193 14.0413 7.67193C13.5918 7.67193 13.2274 8.03635 13.2274 8.48588V19.4935L13.2348 19.6039C13.2887 20.0012 13.6292 20.3074 14.0413 20.3074C14.4909 20.3074 14.8553 19.943 14.8553 19.4935V8.48588L14.8478 8.37543ZM9.78325 11.9379C9.72935 11.5406 9.3888 11.2344 8.97672 11.2344C8.52719 11.2344 8.16277 11.5988 8.16277 12.0484V19.4935L8.1702 19.6039C8.2241 20.0012 8.56465 20.3074 8.97672 20.3074C9.42626 20.3074 9.79068 19.943 9.79068 19.4935V12.0484L9.78325 11.9379ZM19.0232 15.1687C19.4353 15.1687 19.7759 15.4749 19.8298 15.8722L19.8372 15.9826V19.4935C19.8372 19.943 19.4728 20.3074 19.0232 20.3074C18.6112 20.3074 18.2706 20.0012 18.2167 19.6039L18.2093 19.4935V15.9826C18.2093 15.5331 18.5737 15.1687 19.0232 15.1687Z" fill="#ADB3CC"/>
</svg>
