<svg width="28" height="28" viewBox="0 0 28 28" fill="none" xmlns="http://www.w3.org/2000/svg">
<path fill-rule="evenodd" clip-rule="evenodd" d="M13.9274 4.01041C10.9459 4.01041 8.55108 6.40523 8.55108 9.3867C8.55108 12.369 10.9457 14.7641 13.9274 14.7641C16.909 14.7641 19.3037 12.369 19.3037 9.3867C19.3037 6.40523 16.9088 4.01041 13.9274 4.01041ZM13.9274 5.76041C15.9423 5.76041 17.5537 7.37173 17.5537 9.3867C17.5537 11.4026 15.9425 13.0141 13.9274 13.0141C11.9123 13.0141 10.3011 11.4026 10.3011 9.3867C10.3011 7.37173 11.9124 5.76041 13.9274 5.76041ZM7.33831 5.10926C7.82156 5.10926 8.21331 5.50101 8.21331 5.98426C8.21331 6.46751 7.82156 6.85926 7.33831 6.85926C5.95188 6.85926 4.82745 7.9832 4.82745 9.36905C4.82745 10.7549 5.95188 11.8788 7.33831 11.8788C7.82156 11.8788 8.21331 12.2706 8.21331 12.7538C8.21331 13.2371 7.82156 13.6288 7.33831 13.6288C4.98555 13.6288 3.07745 11.7216 3.07745 9.36905C3.07745 7.01653 4.98555 5.10926 7.33831 5.10926ZM24.7882 9.36905C24.7882 7.01653 22.8801 5.10926 20.5273 5.10926C20.0441 5.10926 19.6523 5.50101 19.6523 5.98426C19.6523 6.46751 20.0441 6.85926 20.5273 6.85926C21.9138 6.85926 23.0382 7.9832 23.0382 9.36905C23.0382 10.7549 21.9138 11.8788 20.5273 11.8788C20.0441 11.8788 19.6523 12.2706 19.6523 12.7538C19.6523 13.2371 20.0441 13.6288 20.5273 13.6288C22.8801 13.6288 24.7882 11.7216 24.7882 9.36905ZM23.9118 15.8141C23.3516 15.6877 22.7529 15.6013 22.1441 15.5593C21.662 15.526 21.2442 15.8899 21.211 16.372C21.1777 16.8541 21.5416 17.2719 22.0237 17.3051C22.5447 17.3411 23.0552 17.4148 23.5516 17.5265C24.3235 17.678 24.8268 17.929 24.9517 18.1908C25.0457 18.3884 25.0457 18.6207 24.9508 18.8207C24.8276 19.0798 24.3285 19.3296 23.5675 19.4861C23.0941 19.5834 22.7893 20.0461 22.8866 20.5194C22.984 20.9927 23.4466 21.2976 23.9199 21.2002C25.1778 20.9416 26.0993 20.4803 26.5316 19.5715C26.8521 18.8958 26.8521 18.1121 26.5316 17.4382C26.0963 16.5259 25.159 16.0583 23.9118 15.8141ZM6.65466 16.372C6.62141 15.8899 6.20364 15.526 5.72153 15.5593C5.11278 15.6013 4.51408 15.6877 3.92984 15.8192L3.68899 15.8701C2.58343 16.1227 1.73999 16.587 1.33514 17.4381C1.01331 18.1114 1.01331 18.8965 1.33548 19.5722C1.76589 20.4801 2.6873 20.9415 3.94572 21.2002C4.41906 21.2976 4.88169 20.9927 4.97902 20.5194C5.07636 20.0461 4.77154 19.5834 4.2982 19.4861C3.53743 19.3296 3.03883 19.08 2.91595 18.8208C2.82021 18.62 2.82021 18.3891 2.91477 18.1912C3.03959 17.9288 3.54238 17.6779 4.29007 17.5315L4.67883 17.4519C5.06638 17.3803 5.45123 17.3321 5.84194 17.3051C6.32404 17.2719 6.68791 16.8541 6.65466 16.372ZM6.02826 20.0486C6.02826 17.265 8.90752 16.2861 13.9274 16.2861L14.283 16.2878C19.0931 16.333 21.8265 17.3141 21.8265 20.0283C21.8265 22.6786 19.2137 23.6934 14.6297 23.7841L13.9274 23.7908C8.89601 23.7908 6.02826 22.8291 6.02826 20.0486ZM20.0765 20.0283C20.0765 18.7327 17.9992 18.0361 13.9274 18.0361C9.85955 18.0361 7.77826 18.7437 7.77826 20.0486C7.77826 21.3444 9.85491 22.0408 13.9274 22.0408C17.994 22.0408 20.0765 21.3326 20.0765 20.0283Z" fill="#DDEFFA"/>
</svg>
