<svg width="20" height="20" viewBox="0 0 20 20" fill="none" xmlns="http://www.w3.org/2000/svg">
<path opacity="0.4" d="M9.99266 15.5179L4.58288 18.2201C4.17435 18.4418 3.66475 18.2938 3.43625 17.8869C3.36951 17.759 3.33422 17.6168 3.33334 17.4723V11.424C3.33334 12.0236 3.67145 12.3938 4.56083 12.8084L9.99266 15.5179Z" fill="#ADB3CC"/>
<path fill-rule="evenodd" clip-rule="evenodd" d="M7.41273 1.66666H12.5579C14.8144 1.66666 16.6446 2.55503 16.6667 4.8278V17.4724C16.6658 17.6145 16.6305 17.7543 16.5638 17.8795C16.4566 18.0839 16.2716 18.2356 16.0512 18.2998C15.8308 18.364 15.594 18.3352 15.3951 18.2201L9.99266 15.5179L4.56083 12.8084C3.67145 12.3938 3.33334 12.0236 3.33334 11.424V4.8278C3.33334 2.55503 5.16355 1.66666 7.41273 1.66666ZM6.85411 8.01855H13.1239C13.4852 8.01855 13.778 7.72356 13.778 7.35967C13.778 6.99578 13.4852 6.70079 13.1239 6.70079H6.85411C6.49282 6.70079 6.19994 6.99578 6.19994 7.35967C6.19994 7.72356 6.49282 8.01855 6.85411 8.01855Z" fill="#ADB3CC"/>
</svg>
