<svg width="318" height="197" viewBox="0 0 318 197" fill="none" xmlns="http://www.w3.org/2000/svg">
<mask id="mask0_11_309" style="mask-type:alpha" maskUnits="userSpaceOnUse" x="0" y="0" width="318" height="197">
<rect width="318" height="197" rx="12" fill="#0329E8"/>
</mask>
<g mask="url(#mask0_11_309)">
<path d="M59.8401 130.716C34.5251 129.252 0.264771 152.204 0.264771 152.204V227.412H317.735V130.716C317.735 130.716 293.339 144.189 276.694 141.899C250.126 138.243 265.152 100.304 239.361 93.8796C220.679 89.2262 208.547 107.871 190.376 101.992C172.093 96.0773 178.321 75.852 160.986 68.2256C121.781 50.9777 154.004 152.923 109.619 152.204C87.7005 151.849 81.7092 131.981 59.8401 130.716Z" fill="#2E3757"/>
<path d="M0.264771 152.204C0.264771 152.204 34.5251 129.252 59.8401 130.716C81.7092 131.981 87.7005 151.849 109.619 152.204C154.004 152.923 121.781 50.9777 160.986 68.2256C178.321 75.852 172.093 96.0773 190.376 101.992C208.547 107.871 220.679 89.2262 239.361 93.8796C265.152 100.304 250.126 138.243 276.694 141.899C293.339 144.189 317.735 130.716 317.735 130.716" stroke="url(#paint0_linear_11_309)" stroke-width="3" stroke-linecap="round"/>
<path opacity="0.3" d="M158.338 227.412V52" stroke="white" stroke-width="2" stroke-linecap="round" stroke-dasharray="0 1 14 0 1 14"/>
<g filter="url(#filter0_d_11_309)">
<circle cx="159" cy="68" r="7" fill="#1A1E30"/>
<circle cx="159" cy="68" r="5" stroke="white" stroke-width="4"/>
</g>
<g filter="url(#filter1_b_11_309)">
<rect x="122" y="82" width="74" height="47" rx="8" fill="#42BBFF" fill-opacity="0.06"/>
<path d="M141.739 104.139C141.026 104.139 140.397 104.017 139.85 103.771C139.306 103.526 138.88 103.188 138.572 102.757C138.264 102.326 138.111 101.836 138.115 101.286C138.111 100.855 138.199 100.459 138.378 100.097C138.56 99.7327 138.807 99.4295 139.119 99.1875C139.43 98.9422 139.778 98.7865 140.163 98.7202V98.6605C139.656 98.5379 139.25 98.2661 138.945 97.8452C138.64 97.4242 138.489 96.9403 138.492 96.3935C138.489 95.8731 138.627 95.4091 138.905 95.0014C139.187 94.5904 139.573 94.2673 140.063 94.032C140.554 93.7966 141.112 93.679 141.739 93.679C142.359 93.679 142.912 93.7983 143.399 94.0369C143.89 94.2723 144.276 94.5954 144.558 95.0064C144.84 95.4141 144.982 95.8764 144.985 96.3935C144.982 96.9403 144.826 97.4242 144.518 97.8452C144.21 98.2661 143.809 98.5379 143.315 98.6605V98.7202C143.696 98.7865 144.039 98.9422 144.344 99.1875C144.652 99.4295 144.898 99.7327 145.08 100.097C145.265 100.459 145.36 100.855 145.363 101.286C145.36 101.836 145.204 102.326 144.896 102.757C144.588 103.188 144.16 103.526 143.613 103.771C143.07 104.017 142.445 104.139 141.739 104.139ZM141.739 102.881C142.16 102.881 142.524 102.812 142.833 102.673C143.141 102.53 143.38 102.333 143.549 102.081C143.718 101.826 143.804 101.527 143.807 101.186C143.804 100.831 143.711 100.518 143.529 100.246C143.35 99.9747 143.106 99.7609 142.798 99.6051C142.49 99.4493 142.137 99.3714 141.739 99.3714C141.338 99.3714 140.982 99.4493 140.67 99.6051C140.358 99.7609 140.113 99.9747 139.934 100.246C139.755 100.518 139.667 100.831 139.671 101.186C139.667 101.527 139.749 101.826 139.914 102.081C140.083 102.333 140.324 102.53 140.635 102.673C140.947 102.812 141.315 102.881 141.739 102.881ZM141.739 98.1435C142.077 98.1435 142.377 98.0755 142.639 97.9396C142.901 97.8037 143.106 97.6148 143.255 97.3729C143.408 97.1309 143.486 96.8475 143.489 96.5227C143.486 96.2045 143.409 95.9261 143.26 95.6875C143.114 95.4489 142.911 95.2649 142.649 95.1357C142.387 95.0031 142.084 94.9368 141.739 94.9368C141.388 94.9368 141.079 95.0031 140.814 95.1357C140.552 95.2649 140.348 95.4489 140.203 95.6875C140.057 95.9261 139.986 96.2045 139.989 96.5227C139.986 96.8475 140.058 97.1309 140.208 97.3729C140.357 97.6148 140.562 97.8037 140.824 97.9396C141.089 98.0755 141.394 98.1435 141.739 98.1435ZM146.65 102.011V100.768L151.05 93.8182H152.03V95.6477H151.408L148.261 100.629V100.709H154.292V102.011H146.65ZM151.478 104V101.634L151.488 101.067V93.8182H152.945V104H151.478ZM157.315 102.608L157.241 103.15C157.191 103.548 157.107 103.962 156.987 104.393C156.871 104.827 156.75 105.23 156.624 105.601C156.502 105.972 156.401 106.267 156.321 106.486H155.267C155.31 106.28 155.37 106.002 155.446 105.651C155.522 105.303 155.597 104.913 155.67 104.482C155.743 104.051 155.797 103.612 155.834 103.165L155.884 102.608H157.315ZM161.747 93.8182V104H160.206V95.3594H160.146L157.71 96.9503V95.4787L160.251 93.8182H161.747ZM167.582 104.139C166.959 104.139 166.399 104.02 165.902 103.781C165.408 103.539 165.014 103.208 164.719 102.787C164.424 102.366 164.266 101.885 164.246 101.345H165.738C165.774 101.783 165.968 102.142 166.32 102.424C166.671 102.706 167.092 102.847 167.582 102.847C167.973 102.847 168.32 102.757 168.621 102.578C168.926 102.396 169.165 102.146 169.337 101.827C169.513 101.509 169.601 101.146 169.601 100.739C169.601 100.324 169.511 99.9548 169.332 99.63C169.153 99.3052 168.906 99.05 168.592 98.8643C168.28 98.6787 167.922 98.5843 167.518 98.581C167.209 98.581 166.9 98.634 166.588 98.7401C166.276 98.8461 166.025 98.9853 165.832 99.1577L164.425 98.9489L164.997 93.8182H170.595V95.1357H166.275L165.952 97.9844H166.011C166.21 97.7921 166.474 97.6314 166.802 97.5021C167.133 97.3729 167.488 97.3082 167.866 97.3082C168.485 97.3082 169.037 97.4557 169.521 97.7507C170.008 98.0457 170.391 98.4484 170.67 98.9588C170.951 99.4659 171.091 100.049 171.087 100.709C171.091 101.368 170.941 101.957 170.64 102.474C170.342 102.991 169.927 103.398 169.397 103.697C168.87 103.992 168.265 104.139 167.582 104.139ZM176.168 104.169C175.382 104.166 174.711 103.959 174.154 103.548C173.598 103.137 173.172 102.538 172.877 101.753C172.582 100.967 172.434 100.021 172.434 98.9141C172.434 97.8104 172.582 96.8674 172.877 96.0852C173.175 95.303 173.603 94.7064 174.159 94.2955C174.72 93.8845 175.389 93.679 176.168 93.679C176.947 93.679 177.615 93.8861 178.171 94.3004C178.728 94.7114 179.154 95.308 179.449 96.0902C179.747 96.8691 179.897 97.8104 179.897 98.9141C179.897 100.024 179.749 100.972 179.454 101.758C179.159 102.54 178.733 103.138 178.176 103.553C177.62 103.964 176.95 104.169 176.168 104.169ZM176.168 102.842C176.857 102.842 177.396 102.505 177.784 101.832C178.175 101.16 178.37 100.187 178.37 98.9141C178.37 98.0689 178.281 97.3546 178.102 96.7713C177.926 96.1847 177.673 95.7405 177.341 95.4389C177.013 95.134 176.622 94.9815 176.168 94.9815C175.482 94.9815 174.943 95.3196 174.552 95.9957C174.161 96.6719 173.964 97.6446 173.961 98.9141C173.961 99.7625 174.048 100.48 174.224 101.067C174.403 101.65 174.657 102.093 174.985 102.394C175.313 102.692 175.707 102.842 176.168 102.842Z" fill="white"/>
<path d="M147.188 117.778V112.977H148.143V117.778H147.188ZM145.267 115.854V114.902H150.068V115.854H145.267ZM151.344 117.58V116.692L154.486 111.727H155.186V113.034H154.742L152.494 116.592V116.649H156.802V117.58H151.344ZM154.792 119V117.31L154.799 116.905V111.727H155.839V119H154.792ZM158.28 119.067C158.085 119.067 157.919 118.999 157.779 118.862C157.639 118.722 157.569 118.554 157.569 118.357C157.569 118.163 157.639 117.997 157.779 117.86C157.919 117.72 158.085 117.651 158.28 117.651C158.474 117.651 158.641 117.72 158.78 117.86C158.92 117.997 158.99 118.163 158.99 118.357C158.99 118.487 158.957 118.607 158.89 118.716C158.826 118.822 158.741 118.908 158.635 118.972C158.528 119.036 158.41 119.067 158.28 119.067ZM162.481 119.099C162.036 119.099 161.636 119.014 161.281 118.844C160.928 118.671 160.646 118.434 160.436 118.134C160.225 117.833 160.113 117.49 160.098 117.104H161.164C161.19 117.416 161.328 117.673 161.579 117.874C161.83 118.076 162.131 118.176 162.481 118.176C162.761 118.176 163.008 118.112 163.223 117.984C163.441 117.854 163.612 117.675 163.735 117.448C163.86 117.221 163.923 116.962 163.923 116.67C163.923 116.375 163.859 116.111 163.731 115.879C163.603 115.647 163.427 115.464 163.202 115.332C162.98 115.199 162.724 115.132 162.435 115.129C162.215 115.129 161.994 115.167 161.771 115.243C161.548 115.319 161.369 115.418 161.231 115.541L160.226 115.392L160.635 111.727H164.633V112.668H161.547L161.316 114.703H161.359C161.501 114.566 161.689 114.451 161.924 114.359C162.16 114.266 162.414 114.22 162.684 114.22C163.126 114.22 163.52 114.326 163.866 114.536C164.214 114.747 164.488 115.035 164.686 115.399C164.888 115.761 164.987 116.178 164.985 116.649C164.987 117.12 164.881 117.54 164.665 117.91C164.452 118.279 164.156 118.57 163.777 118.783C163.401 118.994 162.969 119.099 162.481 119.099ZM169.878 117.636V117.253C169.878 116.978 169.935 116.727 170.048 116.5C170.164 116.27 170.333 116.087 170.553 115.95C170.775 115.81 171.044 115.74 171.359 115.74C171.681 115.74 171.951 115.809 172.168 115.946C172.386 116.083 172.551 116.267 172.662 116.496C172.776 116.726 172.833 116.978 172.833 117.253V117.636C172.833 117.911 172.776 118.163 172.662 118.393C172.548 118.62 172.382 118.804 172.161 118.943C171.944 119.08 171.676 119.149 171.359 119.149C171.039 119.149 170.769 119.08 170.549 118.943C170.329 118.804 170.162 118.62 170.048 118.393C169.935 118.163 169.878 117.911 169.878 117.636ZM170.705 117.253V117.636C170.705 117.84 170.754 118.025 170.851 118.19C170.948 118.356 171.117 118.439 171.359 118.439C171.598 118.439 171.765 118.356 171.86 118.19C171.954 118.025 172.002 117.84 172.002 117.636V117.253C172.002 117.049 171.955 116.865 171.863 116.699C171.773 116.533 171.605 116.45 171.359 116.45C171.122 116.45 170.954 116.533 170.855 116.699C170.755 116.865 170.705 117.049 170.705 117.253ZM166.22 113.474V113.091C166.22 112.816 166.277 112.564 166.391 112.335C166.507 112.105 166.675 111.921 166.895 111.784C167.118 111.647 167.386 111.578 167.701 111.578C168.023 111.578 168.293 111.647 168.511 111.784C168.729 111.921 168.893 112.105 169.004 112.335C169.116 112.564 169.171 112.816 169.171 113.091V113.474C169.171 113.749 169.114 114.001 169.001 114.231C168.89 114.458 168.724 114.642 168.504 114.781C168.286 114.919 168.018 114.987 167.701 114.987C167.379 114.987 167.108 114.919 166.888 114.781C166.67 114.642 166.504 114.458 166.391 114.231C166.277 114.001 166.22 113.749 166.22 113.474ZM167.051 113.091V113.474C167.051 113.678 167.099 113.863 167.193 114.028C167.29 114.194 167.46 114.277 167.701 114.277C167.938 114.277 168.104 114.194 168.198 114.028C168.295 113.863 168.344 113.678 168.344 113.474V113.091C168.344 112.887 168.298 112.703 168.205 112.537C168.113 112.371 167.945 112.288 167.701 112.288C167.464 112.288 167.296 112.371 167.197 112.537C167.1 112.703 167.051 112.887 167.051 113.091ZM166.558 119L171.558 111.727H172.406L167.406 119H166.558Z" fill="white"/>
<rect x="122.5" y="82.5" width="73" height="46" rx="7.5" stroke="#8B91A5"/>
</g>
</g>
<defs>
<filter id="filter0_d_11_309" x="127" y="41" width="64" height="64" filterUnits="userSpaceOnUse" color-interpolation-filters="sRGB">
<feFlood flood-opacity="0" result="BackgroundImageFix"/>
<feColorMatrix in="SourceAlpha" type="matrix" values="0 0 0 0 0 0 0 0 0 0 0 0 0 0 0 0 0 0 127 0" result="hardAlpha"/>
<feOffset dy="5"/>
<feGaussianBlur stdDeviation="12.5"/>
<feColorMatrix type="matrix" values="0 0 0 0 0 0 0 0 0 0 0 0 0 0 0 0 0 0 0.1 0"/>
<feBlend mode="normal" in2="BackgroundImageFix" result="effect1_dropShadow_11_309"/>
<feBlend mode="normal" in="SourceGraphic" in2="effect1_dropShadow_11_309" result="shape"/>
</filter>
<filter id="filter1_b_11_309" x="115" y="75" width="88" height="61" filterUnits="userSpaceOnUse" color-interpolation-filters="sRGB">
<feFlood flood-opacity="0" result="BackgroundImageFix"/>
<feGaussianBlur in="BackgroundImageFix" stdDeviation="3.5"/>
<feComposite in2="SourceAlpha" operator="in" result="effect1_backgroundBlur_11_309"/>
<feBlend mode="normal" in="SourceGraphic" in2="effect1_backgroundBlur_11_309" result="shape"/>
</filter>
<linearGradient id="paint0_linear_11_309" x1="159" y1="66.2598" x2="159" y2="152.208" gradientUnits="userSpaceOnUse">
<stop stop-color="white"/>
<stop offset="1" stop-color="white"/>
</linearGradient>
</defs>
</svg>
